<svg width="84" height="84" viewBox="0 0 84 84" fill="none" xmlns="http://www.w3.org/2000/svg">
<path d="M62.5193 37.1015H70.7058V27.0447C70.7058 25.9627 69.8237 25.0686 68.7297 25.0686H12.9178C11.8357 25.0686 10.9417 25.9507 10.9417 27.0447V67.0836C10.9417 68.1656 11.8237 69.0597 12.9178 69.0597H68.7297C69.8117 69.0597 70.7058 68.1777 70.7058 67.0836V57.0268H62.5193C57.0028 57.0268 52.5565 52.5924 52.5565 47.0641C52.5565 41.5358 56.9912 37.1015 62.5193 37.1015Z" fill="white"/>
<path d="M66.7537 37.1135H62.5193C56.991 37.1135 52.5565 41.5479 52.5565 47.0762C52.5565 52.6045 56.991 57.0389 62.5193 57.0389H66.7537V65.1314H14.8821V43.3239H18.4342C19.5163 43.3239 20.4104 42.4418 20.4104 41.3478C20.4104 40.2657 19.5165 39.3716 18.4342 39.3716H14.8939V35.4312H24.3625C25.4445 35.4312 26.3386 34.5491 26.3386 33.455C26.3386 32.373 25.4565 31.4789 24.3625 31.4789H14.8939V29.0088H66.7656V37.1129H66.7537V37.1135Z" fill="#0061FF"/>
<path d="M56.4854 47.0644C56.4854 50.4166 59.1436 53.0748 62.4958 53.0748H74.0346V41.0537H62.6017C59.2495 41.0537 56.4854 43.7121 56.4854 47.0644Z" fill="#F8AB39"/>
<path d="M56.4029 21.1284L41.9119 6.73145L27.3149 21.1284H56.4029Z" fill="#0061FF"/>
<path d="M76.0229 37.1016H74.6466V27.0448C74.6466 23.7866 71.9883 21.1284 68.7302 21.1284H62.0258L43.2883 2.59101C42.5003 1.803 41.3121 1.803 40.5241 2.59101L21.787 21.1284H12.9181C9.65997 21.1284 7.00171 23.7866 7.00171 27.0448V67.0836C7.00171 70.3418 9.65997 73 12.9181 73H68.73C71.9882 73 74.6464 70.3418 74.6464 67.0836V57.0269H76.0227C77.1047 57.0269 77.9988 56.1448 77.9988 55.0507V39.0775C77.9988 37.9955 77.1167 37.1016 76.0229 37.1016ZM62.5196 57.0269H70.7062V67.0836C70.7062 68.1657 69.8241 69.0598 68.73 69.0598H12.9181C11.8361 69.0598 10.942 68.1777 10.942 67.0836V27.0448C10.942 25.9627 11.8241 25.0687 12.9181 25.0687H68.73C69.8121 25.0687 70.7062 25.9507 70.7062 27.0448V37.1016H62.5196C57.0031 37.1016 52.5569 41.536 52.5569 47.0643C52.5571 52.5926 56.9915 57.0269 62.5196 57.0269ZM56.4032 21.1284H27.3153L41.9122 6.73141L56.4032 21.1284ZM74.0585 53.0866H72.6823H62.5196C59.1674 53.0866 56.5091 50.4283 56.5091 47.0761C56.5091 43.7239 59.1674 41.0657 62.5196 41.0657H72.6823H74.0585V53.0866Z" fill="black"/>
<path d="M59.1672 47.0643C59.1672 48.1463 60.0493 49.0404 61.1434 49.0404H63.7076C64.7896 49.0404 65.6837 48.1583 65.6837 47.0643C65.6837 45.9822 64.8016 45.0881 63.7076 45.0881H61.1434C60.0495 45.1 59.1672 45.982 59.1672 47.0643Z" fill="black"/>
<path d="M28.5031 58.6973H20.4224C19.3404 58.6973 18.4463 59.5793 18.4463 60.6734C18.4463 61.7554 19.3284 62.6495 20.4224 62.6495H28.5031C29.5851 62.6495 30.4792 61.7674 30.4792 60.6734C30.4674 59.5912 29.5851 58.6973 28.5031 58.6973Z" fill="black"/>
</svg>
