<svg width="25" height="25" viewBox="0 0 25 25" fill="none" xmlns="http://www.w3.org/2000/svg">
<path d="M18.0498 8.42871C19.7067 8.42871 21.0498 7.08557 21.0498 5.42871C21.0498 3.77186 19.7067 2.42871 18.0498 2.42871C16.393 2.42871 15.0498 3.77186 15.0498 5.42871C15.0498 7.08557 16.393 8.42871 18.0498 8.42871Z" stroke="#0061FF" stroke-width="2" stroke-linecap="round" stroke-linejoin="round"/>
<path d="M6.0498 15.4287C7.70666 15.4287 9.0498 14.0856 9.0498 12.4287C9.0498 10.7719 7.70666 9.42871 6.0498 9.42871C4.39295 9.42871 3.0498 10.7719 3.0498 12.4287C3.0498 14.0856 4.39295 15.4287 6.0498 15.4287Z" stroke="#0061FF" stroke-width="2" stroke-linecap="round" stroke-linejoin="round"/>
<path d="M18.0498 22.4287C19.7067 22.4287 21.0498 21.0856 21.0498 19.4287C21.0498 17.7719 19.7067 16.4287 18.0498 16.4287C16.393 16.4287 15.0498 17.7719 15.0498 19.4287C15.0498 21.0856 16.393 22.4287 18.0498 22.4287Z" stroke="#0061FF" stroke-width="2" stroke-linecap="round" stroke-linejoin="round"/>
<path d="M8.63989 13.9385L15.4699 17.9185" stroke="#0061FF" stroke-width="2" stroke-linecap="round" stroke-linejoin="round"/>
<path d="M15.4599 6.93848L8.63989 10.9185" stroke="#0061FF" stroke-width="2" stroke-linecap="round" stroke-linejoin="round"/>
</svg>
